<svg width="49" height="48" viewBox="0 0 49 48" fill="none" xmlns="http://www.w3.org/2000/svg">
<circle cx="24.7891" cy="24" r="24" fill="#F6F8FD"/>
<g clip-path="url(#clip0_1_270)">
<path d="M34.7891 21H29.9991L25.6191 14.44C25.4291 14.16 25.1091 14.02 24.7891 14.02C24.4691 14.02 24.1491 14.16 23.9591 14.45L19.5791 21H14.7891C14.2391 21 13.7891 21.45 13.7891 22C13.7891 22.09 13.7991 22.18 13.8291 22.27L16.3691 31.54C16.5991 32.38 17.3691 33 18.2891 33H31.2891C32.2091 33 32.9791 32.38 33.2191 31.54L35.7591 22.27L35.7891 22C35.7891 21.45 35.3391 21 34.7891 21ZM24.7891 16.8L27.5891 21H21.9891L24.7891 16.8ZM31.2891 31L18.2991 31.01L16.0991 23H33.4891L31.2891 31ZM24.7891 25C23.6891 25 22.7891 25.9 22.7891 27C22.7891 28.1 23.6891 29 24.7891 29C25.8891 29 26.7891 28.1 26.7891 27C26.7891 25.9 25.8891 25 24.7891 25Z" fill="#01B574"/>
</g>
<defs>
<clipPath id="clip0_1_270">
<rect width="24" height="24" fill="white" transform="translate(12.7891 12)"/>
</clipPath>
</defs>
</svg>
