<svg width="49" height="48" viewBox="0 0 49 48" fill="none" xmlns="http://www.w3.org/2000/svg">
<circle cx="24.7891" cy="24" r="24" fill="#F6F8FD"/>
<g clip-path="url(#clip0_1_259)">
<path d="M24.7891 14C20.3691 14 16.7891 14.5 16.7891 18V28C16.7891 28.88 17.1791 29.67 17.7891 30.22V32C17.7891 32.55 18.2391 33 18.7891 33H19.7891C20.3391 33 20.7891 32.55 20.7891 32V31H28.7891V32C28.7891 32.55 29.2391 33 29.7891 33H30.7891C31.3391 33 31.7891 32.55 31.7891 32V30.22C32.3991 29.67 32.7891 28.88 32.7891 28V18C32.7891 14.5 29.2091 14 24.7891 14ZM30.4491 16.99H19.1291C19.6791 16.46 21.0991 16 24.7891 16C28.4791 16 29.8991 16.46 30.4491 16.99ZM30.7891 18.99V22H18.7891V18.99H30.7891ZM30.4491 28.73L30.1591 29H19.4191L19.1291 28.73C18.9991 28.62 18.7891 28.37 18.7891 28V24H30.7891V28C30.7891 28.37 30.5791 28.62 30.4491 28.73Z" fill="#4318FF"/>
<path d="M21.2891 28C22.1175 28 22.7891 27.3284 22.7891 26.5C22.7891 25.6716 22.1175 25 21.2891 25C20.4606 25 19.7891 25.6716 19.7891 26.5C19.7891 27.3284 20.4606 28 21.2891 28Z" fill="#4318FF"/>
<path d="M28.2891 28C29.1175 28 29.7891 27.3284 29.7891 26.5C29.7891 25.6716 29.1175 25 28.2891 25C27.4606 25 26.7891 25.6716 26.7891 26.5C26.7891 27.3284 27.4606 28 28.2891 28Z" fill="#4318FF"/>
</g>
<defs>
<clipPath id="clip0_1_259">
<rect width="24" height="24" fill="white" transform="translate(12.7891 12)"/>
</clipPath>
</defs>
</svg>
