<svg width="652" height="161" viewBox="0 0 652 161" fill="none" xmlns="http://www.w3.org/2000/svg">
<rect x="0.789062" y="103" width="34.9606" height="58" rx="8" fill="#E9EDF7"/>
<rect x="56.7498" y="19" width="34.9606" height="142" rx="8" fill="#E9EDF7"/>
<rect x="112.71" y="63" width="34.9606" height="98" rx="8" fill="#E9EDF7"/>
<rect x="168.671" y="49" width="34.9606" height="112" rx="8" fill="#E9EDF7"/>
<rect x="224.632" y="71" width="34.9606" height="90" rx="8" fill="#E9EDF7"/>
<rect x="280.592" width="34.9606" height="161" rx="8" fill="#4318FF"/>
<rect x="336.553" y="83" width="34.9606" height="78" rx="8" fill="#E9EDF7"/>
<rect x="392.514" y="19" width="34.9606" height="142" rx="8" fill="#E9EDF7"/>
<rect x="448.474" y="122" width="34.9606" height="39" rx="8" fill="#E9EDF7"/>
<rect x="504.435" y="49" width="34.9606" height="112" rx="8" fill="#E9EDF7"/>
<rect x="560.396" y="98" width="34.9606" height="63" rx="8" fill="#E9EDF7"/>
<rect x="616.356" y="63" width="34.9606" height="98" rx="8" fill="#E9EDF7"/>
</svg>
