<svg width="678" height="22" viewBox="0 0 678 22" fill="none" xmlns="http://www.w3.org/2000/svg">
<line x1="0.789063" y1="10.5" x2="633.789" y2="10.5001" stroke="#4318FF" stroke-dasharray="7 6"/>
<path d="M644.909 16.044V15.12C644.125 15.032 643.497 14.756 643.025 14.292C642.553 13.828 642.313 13.22 642.305 12.468H643.649C643.657 12.844 643.769 13.176 643.985 13.464C644.201 13.744 644.509 13.932 644.909 14.028V11.136C644.845 11.12 644.777 11.1 644.705 11.076C644.641 11.052 644.573 11.028 644.501 11.004C643.853 10.788 643.365 10.508 643.037 10.164C642.717 9.82 642.557 9.368 642.557 8.808C642.549 8.152 642.761 7.616 643.193 7.2C643.625 6.784 644.197 6.54 644.909 6.468V5.508H645.725V6.48C646.421 6.56 646.981 6.812 647.405 7.236C647.829 7.66 648.045 8.192 648.053 8.832H646.709C646.701 8.568 646.613 8.32 646.445 8.088C646.285 7.848 646.045 7.684 645.725 7.596V10.164C645.789 10.188 645.853 10.212 645.917 10.236C645.981 10.252 646.045 10.272 646.109 10.296C646.525 10.432 646.897 10.596 647.225 10.788C647.553 10.98 647.813 11.232 648.005 11.544C648.205 11.856 648.305 12.252 648.305 12.732C648.305 13.132 648.209 13.508 648.017 13.86C647.825 14.204 647.537 14.492 647.153 14.724C646.769 14.956 646.293 15.092 645.725 15.132V16.044H644.909ZM643.877 8.7C643.877 9.02 643.969 9.268 644.153 9.444C644.337 9.612 644.589 9.76 644.909 9.888V7.56C644.605 7.616 644.357 7.744 644.165 7.944C643.973 8.136 643.877 8.388 643.877 8.7ZM646.961 12.816C646.961 12.424 646.845 12.128 646.613 11.928C646.381 11.72 646.085 11.548 645.725 11.412V14.052C646.117 14.004 646.421 13.868 646.637 13.644C646.853 13.42 646.961 13.144 646.961 12.816ZM650.32 15V8.04L648.964 8.352V7.416L650.824 6.6H651.64V15H650.32ZM653.694 15L656.946 7.692H652.578V6.6H658.254V7.524L655.026 15H653.694ZM661.874 15.144C661.322 15.144 660.85 15.036 660.458 14.82C660.066 14.604 659.758 14.316 659.534 13.956C659.318 13.596 659.186 13.204 659.138 12.78H660.326C660.398 13.196 660.57 13.516 660.842 13.74C661.114 13.964 661.462 14.076 661.886 14.076C662.47 14.076 662.95 13.804 663.326 13.26C663.71 12.708 663.914 11.864 663.938 10.728C663.746 11.08 663.446 11.38 663.038 11.628C662.638 11.876 662.174 12 661.646 12C661.174 12 660.73 11.888 660.314 11.664C659.898 11.44 659.562 11.128 659.306 10.728C659.05 10.32 658.922 9.84 658.922 9.288C658.922 8.8 659.042 8.34 659.282 7.908C659.522 7.476 659.858 7.128 660.29 6.864C660.73 6.592 661.25 6.456 661.85 6.456C662.466 6.456 662.986 6.572 663.41 6.804C663.834 7.036 664.174 7.344 664.43 7.728C664.686 8.112 664.87 8.544 664.982 9.024C665.102 9.504 665.162 9.996 665.162 10.5C665.162 11.428 665.03 12.24 664.766 12.936C664.51 13.632 664.138 14.176 663.65 14.568C663.162 14.952 662.57 15.144 661.874 15.144ZM661.934 10.908C662.27 10.908 662.57 10.832 662.834 10.68C663.098 10.528 663.306 10.328 663.458 10.08C663.618 9.824 663.698 9.544 663.698 9.24C663.698 8.912 663.618 8.624 663.458 8.376C663.306 8.12 663.094 7.92 662.822 7.776C662.558 7.632 662.258 7.56 661.922 7.56C661.586 7.56 661.286 7.632 661.022 7.776C660.758 7.92 660.546 8.12 660.386 8.376C660.234 8.624 660.158 8.908 660.158 9.228C660.158 9.74 660.326 10.148 660.662 10.452C660.998 10.756 661.422 10.908 661.934 10.908Z" fill="#4318FF"/>
</svg>
