<svg width="653" height="22" viewBox="0 0 653 22" fill="none" xmlns="http://www.w3.org/2000/svg">
<path d="M11.8129 14.144C11.0289 14.144 10.4049 13.924 9.9409 13.484C9.4849 13.044 9.2569 12.424 9.2569 11.624H10.5289C10.5289 12.024 10.6249 12.356 10.8169 12.62C11.0169 12.884 11.3409 13.016 11.7889 13.016C12.2289 13.016 12.5409 12.892 12.7249 12.644C12.9089 12.388 13.0009 12.064 13.0009 11.672V5.6H14.2729V11.672C14.2729 12.464 14.0529 13.076 13.6129 13.508C13.1729 13.932 12.5729 14.144 11.8129 14.144ZM17.7004 14.144C17.1964 14.144 16.7804 14.06 16.4524 13.892C16.1244 13.724 15.8804 13.504 15.7204 13.232C15.5604 12.952 15.4804 12.648 15.4804 12.32C15.4804 11.744 15.7044 11.288 16.1524 10.952C16.6004 10.616 17.2404 10.448 18.0724 10.448H19.6324V10.34C19.6324 9.876 19.5044 9.528 19.2484 9.296C19.0004 9.064 18.6764 8.948 18.2764 8.948C17.9244 8.948 17.6164 9.036 17.3524 9.212C17.0964 9.38 16.9404 9.632 16.8844 9.968H15.6124C15.6524 9.536 15.7964 9.168 16.0444 8.864C16.3004 8.552 16.6204 8.316 17.0044 8.156C17.3964 7.988 17.8244 7.904 18.2884 7.904C19.1204 7.904 19.7644 8.124 20.2204 8.564C20.6764 8.996 20.9044 9.588 20.9044 10.34V14H19.8004L19.6924 12.98C19.5244 13.308 19.2804 13.584 18.9604 13.808C18.6404 14.032 18.2204 14.144 17.7004 14.144ZM17.9524 13.112C18.2964 13.112 18.5844 13.032 18.8164 12.872C19.0564 12.704 19.2404 12.484 19.3684 12.212C19.5044 11.94 19.5884 11.64 19.6204 11.312H18.2044C17.7004 11.312 17.3404 11.4 17.1244 11.576C16.9164 11.752 16.8124 11.972 16.8124 12.236C16.8124 12.508 16.9124 12.724 17.1124 12.884C17.3204 13.036 17.6004 13.112 17.9524 13.112ZM22.1475 14V8.048H23.2755L23.3715 9.092C23.5555 8.724 23.8235 8.436 24.1755 8.228C24.5355 8.012 24.9475 7.904 25.4115 7.904C26.1315 7.904 26.6955 8.128 27.1035 8.576C27.5195 9.024 27.7275 9.692 27.7275 10.58V14H26.4675V10.712C26.4675 9.56 25.9955 8.984 25.0515 8.984C24.5795 8.984 24.1875 9.152 23.8755 9.488C23.5715 9.824 23.4195 10.304 23.4195 10.928V14H22.1475Z" fill="#A3AED0"/>
<path d="M65.3162 14V5.6H70.5842V6.632H66.5882V9.284H69.9002V10.304H66.5882V14H65.3162ZM74.0348 14.144C73.4508 14.144 72.9308 14.016 72.4748 13.76C72.0268 13.496 71.6748 13.132 71.4188 12.668C71.1628 12.204 71.0348 11.664 71.0348 11.048C71.0348 10.424 71.1588 9.876 71.4068 9.404C71.6628 8.932 72.0148 8.564 72.4628 8.3C72.9188 8.036 73.4468 7.904 74.0468 7.904C74.6308 7.904 75.1388 8.036 75.5708 8.3C76.0028 8.556 76.3388 8.9 76.5788 9.332C76.8188 9.764 76.9388 10.24 76.9388 10.76C76.9388 10.84 76.9348 10.928 76.9268 11.024C76.9268 11.112 76.9228 11.212 76.9148 11.324H72.2828C72.3228 11.9 72.5108 12.34 72.8468 12.644C73.1908 12.94 73.5868 13.088 74.0348 13.088C74.3948 13.088 74.6948 13.008 74.9348 12.848C75.1828 12.68 75.3668 12.456 75.4868 12.176H76.7588C76.5988 12.736 76.2788 13.204 75.7988 13.58C75.3268 13.956 74.7388 14.144 74.0348 14.144ZM74.0348 8.948C73.6108 8.948 73.2348 9.076 72.9068 9.332C72.5788 9.58 72.3788 9.956 72.3068 10.46H75.6668C75.6428 9.996 75.4788 9.628 75.1748 9.356C74.8708 9.084 74.4908 8.948 74.0348 8.948ZM81.3666 14.144C80.9026 14.144 80.4906 14.052 80.1306 13.868C79.7786 13.684 79.4986 13.424 79.2906 13.088L79.1586 14H78.0186V5.36H79.2906V8.972C79.4826 8.692 79.7466 8.444 80.0826 8.228C80.4186 8.012 80.8506 7.904 81.3786 7.904C81.9546 7.904 82.4626 8.04 82.9026 8.312C83.3426 8.584 83.6866 8.956 83.9346 9.428C84.1906 9.9 84.3186 10.436 84.3186 11.036C84.3186 11.636 84.1906 12.172 83.9346 12.644C83.6866 13.108 83.3426 13.476 82.9026 13.748C82.4626 14.012 81.9506 14.144 81.3666 14.144ZM81.1506 13.04C81.6946 13.04 82.1426 12.856 82.4946 12.488C82.8466 12.112 83.0226 11.624 83.0226 11.024C83.0226 10.632 82.9426 10.284 82.7826 9.98C82.6226 9.676 82.4026 9.44 82.1226 9.272C81.8426 9.096 81.5186 9.008 81.1506 9.008C80.6066 9.008 80.1586 9.196 79.8066 9.572C79.4626 9.948 79.2906 10.432 79.2906 11.024C79.2906 11.624 79.4626 12.112 79.8066 12.488C80.1586 12.856 80.6066 13.04 81.1506 13.04Z" fill="#A3AED0"/>
<path d="M120.947 14V5.6H122.447L125.291 11.192L128.123 5.6H129.623V14H128.351V7.796L125.783 12.8H124.799L122.219 7.808V14H120.947ZM133.058 14.144C132.554 14.144 132.138 14.06 131.81 13.892C131.482 13.724 131.238 13.504 131.078 13.232C130.918 12.952 130.838 12.648 130.838 12.32C130.838 11.744 131.062 11.288 131.51 10.952C131.958 10.616 132.598 10.448 133.43 10.448H134.99V10.34C134.99 9.876 134.862 9.528 134.606 9.296C134.358 9.064 134.034 8.948 133.634 8.948C133.282 8.948 132.974 9.036 132.71 9.212C132.454 9.38 132.298 9.632 132.242 9.968H130.97C131.01 9.536 131.154 9.168 131.402 8.864C131.658 8.552 131.978 8.316 132.362 8.156C132.754 7.988 133.182 7.904 133.646 7.904C134.478 7.904 135.122 8.124 135.578 8.564C136.034 8.996 136.262 9.588 136.262 10.34V14H135.158L135.05 12.98C134.882 13.308 134.638 13.584 134.318 13.808C133.998 14.032 133.578 14.144 133.058 14.144ZM133.31 13.112C133.654 13.112 133.942 13.032 134.174 12.872C134.414 12.704 134.598 12.484 134.726 12.212C134.862 11.94 134.946 11.64 134.978 11.312H133.562C133.058 11.312 132.698 11.4 132.482 11.576C132.274 11.752 132.17 11.972 132.17 12.236C132.17 12.508 132.27 12.724 132.47 12.884C132.678 13.036 132.958 13.112 133.31 13.112ZM137.505 14V8.048H138.645L138.753 9.176C138.961 8.784 139.249 8.476 139.617 8.252C139.993 8.02 140.445 7.904 140.973 7.904V9.236H140.625C140.273 9.236 139.957 9.296 139.677 9.416C139.405 9.528 139.185 9.724 139.017 10.004C138.857 10.276 138.777 10.656 138.777 11.144V14H137.505Z" fill="#A3AED0"/>
<path d="M177.016 14L180.112 5.6H181.504L184.576 14H183.232L182.512 11.948H179.08L178.36 14H177.016ZM179.44 10.94H182.152L180.796 7.112L179.44 10.94ZM185.46 16.64V8.048H186.6L186.732 8.972C186.924 8.692 187.188 8.444 187.524 8.228C187.86 8.012 188.292 7.904 188.82 7.904C189.396 7.904 189.904 8.04 190.344 8.312C190.784 8.584 191.128 8.956 191.376 9.428C191.632 9.9 191.76 10.436 191.76 11.036C191.76 11.636 191.632 12.172 191.376 12.644C191.128 13.108 190.784 13.476 190.344 13.748C189.904 14.012 189.392 14.144 188.808 14.144C188.344 14.144 187.932 14.052 187.572 13.868C187.22 13.684 186.94 13.424 186.732 13.088V16.64H185.46ZM188.592 13.04C189.136 13.04 189.584 12.856 189.936 12.488C190.288 12.112 190.464 11.624 190.464 11.024C190.464 10.632 190.384 10.284 190.224 9.98C190.064 9.676 189.844 9.44 189.564 9.272C189.284 9.096 188.96 9.008 188.592 9.008C188.048 9.008 187.6 9.196 187.248 9.572C186.904 9.948 186.732 10.432 186.732 11.024C186.732 11.624 186.904 12.112 187.248 12.488C187.6 12.856 188.048 13.04 188.592 13.04ZM192.896 14V8.048H194.036L194.144 9.176C194.352 8.784 194.64 8.476 195.008 8.252C195.384 8.02 195.836 7.904 196.364 7.904V9.236H196.016C195.664 9.236 195.348 9.296 195.068 9.416C194.796 9.528 194.576 9.724 194.408 10.004C194.248 10.276 194.168 10.656 194.168 11.144V14H192.896Z" fill="#A3AED0"/>
<path d="M231.857 14V5.6H233.357L236.201 11.192L239.033 5.6H240.533V14H239.261V7.796L236.693 12.8H235.709L233.129 7.808V14H231.857ZM243.968 14.144C243.464 14.144 243.048 14.06 242.72 13.892C242.392 13.724 242.148 13.504 241.988 13.232C241.828 12.952 241.748 12.648 241.748 12.32C241.748 11.744 241.972 11.288 242.42 10.952C242.868 10.616 243.508 10.448 244.34 10.448H245.9V10.34C245.9 9.876 245.772 9.528 245.516 9.296C245.268 9.064 244.944 8.948 244.544 8.948C244.192 8.948 243.884 9.036 243.62 9.212C243.364 9.38 243.208 9.632 243.152 9.968H241.88C241.92 9.536 242.064 9.168 242.312 8.864C242.568 8.552 242.888 8.316 243.272 8.156C243.664 7.988 244.092 7.904 244.556 7.904C245.388 7.904 246.032 8.124 246.488 8.564C246.944 8.996 247.172 9.588 247.172 10.34V14H246.068L245.96 12.98C245.792 13.308 245.548 13.584 245.228 13.808C244.908 14.032 244.488 14.144 243.968 14.144ZM244.22 13.112C244.564 13.112 244.852 13.032 245.084 12.872C245.324 12.704 245.508 12.484 245.636 12.212C245.772 11.94 245.856 11.64 245.888 11.312H244.472C243.968 11.312 243.608 11.4 243.392 11.576C243.184 11.752 243.08 11.972 243.08 12.236C243.08 12.508 243.18 12.724 243.38 12.884C243.588 13.036 243.868 13.112 244.22 13.112ZM248.924 16.64L250.352 13.508H250.004L247.652 8.048H249.032L250.856 12.452L252.764 8.048H254.108L250.268 16.64H248.924Z" fill="#A3AED0"/>
<path d="M349.723 14.144C348.939 14.144 348.315 13.924 347.851 13.484C347.395 13.044 347.167 12.424 347.167 11.624H348.439C348.439 12.024 348.535 12.356 348.727 12.62C348.927 12.884 349.251 13.016 349.699 13.016C350.139 13.016 350.451 12.892 350.635 12.644C350.819 12.388 350.911 12.064 350.911 11.672V5.6H352.183V11.672C352.183 12.464 351.963 13.076 351.523 13.508C351.083 13.932 350.483 14.144 349.723 14.144ZM355.791 14.144C355.071 14.144 354.503 13.92 354.087 13.472C353.679 13.024 353.475 12.356 353.475 11.468V8.048H354.747V11.336C354.747 12.488 355.219 13.064 356.163 13.064C356.635 13.064 357.023 12.896 357.327 12.56C357.631 12.224 357.783 11.744 357.783 11.12V8.048H359.055V14H357.927L357.831 12.956C357.647 13.324 357.375 13.616 357.015 13.832C356.663 14.04 356.255 14.144 355.791 14.144ZM360.433 14V5.36H361.705V14H360.433Z" fill="#A3AED0"/>
<path d="M400.296 14L403.392 5.6H404.784L407.856 14H406.512L405.792 11.948H402.36L401.64 14H400.296ZM402.72 10.94H405.432L404.076 7.112L402.72 10.94ZM410.806 14.144C410.086 14.144 409.518 13.92 409.102 13.472C408.694 13.024 408.49 12.356 408.49 11.468V8.048H409.762V11.336C409.762 12.488 410.234 13.064 411.178 13.064C411.65 13.064 412.038 12.896 412.342 12.56C412.646 12.224 412.798 11.744 412.798 11.12V8.048H414.07V14H412.942L412.846 12.956C412.662 13.324 412.39 13.616 412.03 13.832C411.678 14.04 411.27 14.144 410.806 14.144ZM417.884 12.176C417.572 12.176 417.284 12.14 417.02 12.068L416.504 12.572C416.592 12.628 416.7 12.676 416.828 12.716C416.956 12.756 417.136 12.792 417.368 12.824C417.6 12.856 417.916 12.888 418.316 12.92C419.108 12.992 419.68 13.184 420.032 13.496C420.384 13.8 420.56 14.208 420.56 14.72C420.56 15.072 420.464 15.404 420.272 15.716C420.088 16.036 419.796 16.292 419.396 16.484C419.004 16.684 418.5 16.784 417.884 16.784C417.052 16.784 416.376 16.624 415.856 16.304C415.344 15.992 415.088 15.516 415.088 14.876C415.088 14.628 415.152 14.38 415.28 14.132C415.416 13.892 415.628 13.664 415.916 13.448C415.748 13.376 415.6 13.3 415.472 13.22C415.352 13.132 415.244 13.044 415.148 12.956V12.668L416.18 11.612C415.716 11.212 415.484 10.688 415.484 10.04C415.484 9.648 415.576 9.292 415.76 8.972C415.952 8.644 416.228 8.384 416.588 8.192C416.948 8 417.38 7.904 417.884 7.904C418.22 7.904 418.532 7.952 418.82 8.048H421.04V8.888L419.984 8.948C420.176 9.276 420.272 9.64 420.272 10.04C420.272 10.44 420.176 10.8 419.984 11.12C419.8 11.44 419.528 11.696 419.168 11.888C418.816 12.08 418.388 12.176 417.884 12.176ZM417.884 11.18C418.252 11.18 418.548 11.084 418.772 10.892C419.004 10.692 419.12 10.412 419.12 10.052C419.12 9.684 419.004 9.404 418.772 9.212C418.548 9.02 418.252 8.924 417.884 8.924C417.508 8.924 417.204 9.02 416.972 9.212C416.748 9.404 416.636 9.684 416.636 10.052C416.636 10.412 416.748 10.692 416.972 10.892C417.204 11.084 417.508 11.18 417.884 11.18ZM416.288 14.756C416.288 15.1 416.44 15.356 416.744 15.524C417.048 15.7 417.428 15.788 417.884 15.788C418.324 15.788 418.68 15.692 418.952 15.5C419.224 15.316 419.36 15.068 419.36 14.756C419.36 14.524 419.268 14.324 419.084 14.156C418.9 13.996 418.552 13.896 418.04 13.856C417.656 13.832 417.316 13.796 417.02 13.748C416.74 13.9 416.548 14.064 416.444 14.24C416.34 14.416 416.288 14.588 416.288 14.756Z" fill="#A3AED0"/>
<path d="M459.672 14.144C459.056 14.144 458.516 14.036 458.052 13.82C457.588 13.604 457.224 13.296 456.96 12.896C456.704 12.496 456.572 12.02 456.564 11.468H457.908C457.916 11.916 458.072 12.296 458.376 12.608C458.68 12.92 459.108 13.076 459.66 13.076C460.148 13.076 460.528 12.96 460.8 12.728C461.08 12.488 461.22 12.184 461.22 11.816C461.22 11.52 461.152 11.28 461.016 11.096C460.888 10.912 460.708 10.76 460.476 10.64C460.252 10.52 459.992 10.412 459.696 10.316C459.4 10.22 459.088 10.116 458.76 10.004C458.112 9.788 457.624 9.508 457.296 9.164C456.976 8.82 456.816 8.368 456.816 7.808C456.808 7.336 456.916 6.924 457.14 6.572C457.372 6.22 457.692 5.948 458.1 5.756C458.516 5.556 459 5.456 459.552 5.456C460.096 5.456 460.572 5.556 460.98 5.756C461.396 5.956 461.72 6.236 461.952 6.596C462.184 6.948 462.304 7.36 462.312 7.832H460.968C460.968 7.616 460.912 7.412 460.8 7.22C460.688 7.02 460.524 6.856 460.308 6.728C460.092 6.6 459.828 6.536 459.516 6.536C459.116 6.528 458.784 6.628 458.52 6.836C458.264 7.044 458.136 7.332 458.136 7.7C458.136 8.028 458.232 8.28 458.424 8.456C458.616 8.632 458.88 8.78 459.216 8.9C459.552 9.012 459.936 9.144 460.368 9.296C460.784 9.432 461.156 9.596 461.484 9.788C461.812 9.98 462.072 10.232 462.264 10.544C462.464 10.856 462.564 11.252 462.564 11.732C462.564 12.156 462.456 12.552 462.24 12.92C462.024 13.28 461.7 13.576 461.268 13.808C460.836 14.032 460.304 14.144 459.672 14.144ZM466.451 14.144C465.867 14.144 465.347 14.016 464.891 13.76C464.443 13.496 464.091 13.132 463.835 12.668C463.579 12.204 463.451 11.664 463.451 11.048C463.451 10.424 463.575 9.876 463.823 9.404C464.079 8.932 464.431 8.564 464.879 8.3C465.335 8.036 465.863 7.904 466.463 7.904C467.047 7.904 467.555 8.036 467.987 8.3C468.419 8.556 468.755 8.9 468.995 9.332C469.235 9.764 469.355 10.24 469.355 10.76C469.355 10.84 469.351 10.928 469.343 11.024C469.343 11.112 469.339 11.212 469.331 11.324H464.699C464.739 11.9 464.927 12.34 465.263 12.644C465.607 12.94 466.003 13.088 466.451 13.088C466.811 13.088 467.111 13.008 467.351 12.848C467.599 12.68 467.783 12.456 467.903 12.176H469.175C469.015 12.736 468.695 13.204 468.215 13.58C467.743 13.956 467.155 14.144 466.451 14.144ZM466.451 8.948C466.027 8.948 465.651 9.076 465.323 9.332C464.995 9.58 464.795 9.956 464.723 10.46H468.083C468.059 9.996 467.895 9.628 467.591 9.356C467.287 9.084 466.907 8.948 466.451 8.948ZM470.435 16.64V8.048H471.575L471.707 8.972C471.899 8.692 472.163 8.444 472.499 8.228C472.835 8.012 473.267 7.904 473.795 7.904C474.371 7.904 474.879 8.04 475.319 8.312C475.759 8.584 476.103 8.956 476.351 9.428C476.607 9.9 476.735 10.436 476.735 11.036C476.735 11.636 476.607 12.172 476.351 12.644C476.103 13.108 475.759 13.476 475.319 13.748C474.879 14.012 474.367 14.144 473.783 14.144C473.319 14.144 472.907 14.052 472.547 13.868C472.195 13.684 471.915 13.424 471.707 13.088V16.64H470.435ZM473.567 13.04C474.111 13.04 474.559 12.856 474.911 12.488C475.263 12.112 475.439 11.624 475.439 11.024C475.439 10.632 475.359 10.284 475.199 9.98C475.039 9.676 474.819 9.44 474.539 9.272C474.259 9.096 473.935 9.008 473.567 9.008C473.023 9.008 472.575 9.196 472.223 9.572C471.879 9.948 471.707 10.432 471.707 11.024C471.707 11.624 471.879 12.112 472.223 12.488C472.575 12.856 473.023 13.04 473.567 13.04Z" fill="#A3AED0"/>
<path d="M517.04 14.144C516.208 14.144 515.48 13.96 514.856 13.592C514.232 13.224 513.744 12.716 513.392 12.068C513.04 11.412 512.864 10.656 512.864 9.8C512.864 8.944 513.04 8.192 513.392 7.544C513.744 6.888 514.232 6.376 514.856 6.008C515.48 5.64 516.208 5.456 517.04 5.456C517.872 5.456 518.6 5.64 519.224 6.008C519.848 6.376 520.332 6.888 520.676 7.544C521.028 8.192 521.204 8.944 521.204 9.8C521.204 10.656 521.028 11.412 520.676 12.068C520.332 12.716 519.848 13.224 519.224 13.592C518.6 13.96 517.872 14.144 517.04 14.144ZM517.04 13.004C517.616 13.004 518.116 12.876 518.54 12.62C518.972 12.364 519.308 11.996 519.548 11.516C519.788 11.036 519.908 10.464 519.908 9.8C519.908 9.136 519.788 8.564 519.548 8.084C519.308 7.604 518.972 7.236 518.54 6.98C518.116 6.724 517.616 6.596 517.04 6.596C516.464 6.596 515.96 6.724 515.528 6.98C515.096 7.236 514.76 7.604 514.52 8.084C514.288 8.564 514.172 9.136 514.172 9.8C514.172 10.464 514.288 11.036 514.52 11.516C514.76 11.996 515.096 12.364 515.528 12.62C515.96 12.876 516.464 13.004 517.04 13.004ZM525.153 14.144C524.569 14.144 524.045 14.012 523.581 13.748C523.125 13.484 522.765 13.12 522.501 12.656C522.245 12.184 522.117 11.64 522.117 11.024C522.117 10.408 522.245 9.868 522.501 9.404C522.765 8.932 523.125 8.564 523.581 8.3C524.045 8.036 524.569 7.904 525.153 7.904C525.889 7.904 526.505 8.096 527.001 8.48C527.505 8.864 527.829 9.384 527.973 10.04H526.641C526.561 9.712 526.385 9.456 526.113 9.272C525.841 9.088 525.521 8.996 525.153 8.996C524.841 8.996 524.553 9.076 524.289 9.236C524.025 9.388 523.813 9.616 523.653 9.92C523.493 10.216 523.413 10.584 523.413 11.024C523.413 11.464 523.493 11.836 523.653 12.14C523.813 12.436 524.025 12.664 524.289 12.824C524.553 12.984 524.841 13.064 525.153 13.064C525.521 13.064 525.841 12.972 526.113 12.788C526.385 12.604 526.561 12.344 526.641 12.008H527.973C527.837 12.648 527.517 13.164 527.013 13.556C526.509 13.948 525.889 14.144 525.153 14.144ZM531.491 14C530.907 14 530.443 13.86 530.099 13.58C529.755 13.292 529.583 12.784 529.583 12.056V9.116H528.563V8.048H529.583L529.739 6.536H530.855V8.048H532.535V9.116H530.855V12.056C530.855 12.384 530.923 12.612 531.059 12.74C531.203 12.86 531.447 12.92 531.791 12.92H532.475V14H531.491Z" fill="#A3AED0"/>
<path d="M568.877 14V5.6H570.149L574.361 11.924V5.6H575.633V14H574.361L570.149 7.676V14H568.877ZM579.834 14.144C579.266 14.144 578.754 14.016 578.298 13.76C577.85 13.496 577.494 13.132 577.23 12.668C576.966 12.196 576.834 11.648 576.834 11.024C576.834 10.4 576.966 9.856 577.23 9.392C577.502 8.92 577.866 8.556 578.322 8.3C578.778 8.036 579.286 7.904 579.846 7.904C580.414 7.904 580.922 8.036 581.37 8.3C581.826 8.556 582.186 8.92 582.45 9.392C582.722 9.856 582.858 10.4 582.858 11.024C582.858 11.648 582.722 12.196 582.45 12.668C582.186 13.132 581.826 13.496 581.37 13.76C580.914 14.016 580.402 14.144 579.834 14.144ZM579.834 13.052C580.138 13.052 580.418 12.976 580.674 12.824C580.938 12.672 581.15 12.448 581.31 12.152C581.47 11.848 581.55 11.472 581.55 11.024C581.55 10.576 581.47 10.204 581.31 9.908C581.158 9.604 580.95 9.376 580.686 9.224C580.43 9.072 580.15 8.996 579.846 8.996C579.542 8.996 579.258 9.072 578.994 9.224C578.738 9.376 578.53 9.604 578.37 9.908C578.21 10.204 578.13 10.576 578.13 11.024C578.13 11.472 578.21 11.848 578.37 12.152C578.53 12.448 578.738 12.672 578.994 12.824C579.25 12.976 579.53 13.052 579.834 13.052ZM585.357 14L583.125 8.048H584.457L586.113 12.788L587.769 8.048H589.089L586.869 14H585.357Z" fill="#A3AED0"/>
<path d="M624.537 14V5.6H627.261C628.245 5.6 629.053 5.772 629.685 6.116C630.325 6.46 630.797 6.948 631.101 7.58C631.413 8.204 631.569 8.948 631.569 9.812C631.569 10.668 631.413 11.412 631.101 12.044C630.797 12.668 630.325 13.152 629.685 13.496C629.053 13.832 628.245 14 627.261 14H624.537ZM625.809 12.92H627.213C627.973 12.92 628.573 12.796 629.013 12.548C629.461 12.3 629.781 11.944 629.973 11.48C630.173 11.016 630.273 10.46 630.273 9.812C630.273 9.164 630.173 8.604 629.973 8.132C629.781 7.66 629.461 7.3 629.013 7.052C628.573 6.796 627.973 6.668 627.213 6.668H625.809V12.92ZM635.47 14.144C634.886 14.144 634.366 14.016 633.91 13.76C633.462 13.496 633.11 13.132 632.854 12.668C632.598 12.204 632.47 11.664 632.47 11.048C632.47 10.424 632.594 9.876 632.842 9.404C633.098 8.932 633.45 8.564 633.898 8.3C634.354 8.036 634.882 7.904 635.482 7.904C636.066 7.904 636.574 8.036 637.006 8.3C637.438 8.556 637.774 8.9 638.014 9.332C638.254 9.764 638.374 10.24 638.374 10.76C638.374 10.84 638.37 10.928 638.362 11.024C638.362 11.112 638.358 11.212 638.35 11.324H633.718C633.758 11.9 633.946 12.34 634.282 12.644C634.626 12.94 635.022 13.088 635.47 13.088C635.83 13.088 636.13 13.008 636.37 12.848C636.618 12.68 636.802 12.456 636.922 12.176H638.194C638.034 12.736 637.714 13.204 637.234 13.58C636.762 13.956 636.174 14.144 635.47 14.144ZM635.47 8.948C635.046 8.948 634.67 9.076 634.342 9.332C634.014 9.58 633.814 9.956 633.742 10.46H637.102C637.078 9.996 636.914 9.628 636.61 9.356C636.306 9.084 635.926 8.948 635.47 8.948ZM642.274 14.144C641.69 14.144 641.166 14.012 640.702 13.748C640.246 13.484 639.886 13.12 639.622 12.656C639.366 12.184 639.238 11.64 639.238 11.024C639.238 10.408 639.366 9.868 639.622 9.404C639.886 8.932 640.246 8.564 640.702 8.3C641.166 8.036 641.69 7.904 642.274 7.904C643.01 7.904 643.626 8.096 644.122 8.48C644.626 8.864 644.95 9.384 645.094 10.04H643.762C643.682 9.712 643.506 9.456 643.234 9.272C642.962 9.088 642.642 8.996 642.274 8.996C641.962 8.996 641.674 9.076 641.41 9.236C641.146 9.388 640.934 9.616 640.774 9.92C640.614 10.216 640.534 10.584 640.534 11.024C640.534 11.464 640.614 11.836 640.774 12.14C640.934 12.436 641.146 12.664 641.41 12.824C641.674 12.984 641.962 13.064 642.274 13.064C642.642 13.064 642.962 12.972 643.234 12.788C643.506 12.604 643.682 12.344 643.762 12.008H645.094C644.958 12.648 644.638 13.164 644.134 13.556C643.63 13.948 643.01 14.144 642.274 14.144Z" fill="#A3AED0"/>
<path d="M291.625 14.144C290.841 14.144 290.217 13.924 289.753 13.484C289.297 13.044 289.069 12.424 289.069 11.624H290.341C290.341 12.024 290.437 12.356 290.629 12.62C290.829 12.884 291.153 13.016 291.601 13.016C292.041 13.016 292.353 12.892 292.537 12.644C292.721 12.388 292.813 12.064 292.813 11.672V5.6H294.085V11.672C294.085 12.464 293.865 13.076 293.425 13.508C292.985 13.932 292.385 14.144 291.625 14.144ZM297.693 14.144C296.973 14.144 296.405 13.92 295.989 13.472C295.581 13.024 295.377 12.356 295.377 11.468V8.048H296.649V11.336C296.649 12.488 297.121 13.064 298.065 13.064C298.537 13.064 298.925 12.896 299.229 12.56C299.533 12.224 299.685 11.744 299.685 11.12V8.048H300.957V14H299.829L299.733 12.956C299.549 13.324 299.277 13.616 298.917 13.832C298.565 14.04 298.157 14.144 297.693 14.144ZM302.335 14V8.048H303.463L303.559 9.092C303.743 8.724 304.011 8.436 304.363 8.228C304.723 8.012 305.135 7.904 305.599 7.904C306.319 7.904 306.883 8.128 307.291 8.576C307.707 9.024 307.915 9.692 307.915 10.58V14H306.655V10.712C306.655 9.56 306.183 8.984 305.239 8.984C304.767 8.984 304.375 9.152 304.063 9.488C303.759 9.824 303.607 10.304 303.607 10.928V14H302.335Z" fill="#A3AED0"/>
</svg>
