<svg width="57" height="56" viewBox="0 0 57 56" fill="none" xmlns="http://www.w3.org/2000/svg">
<circle cx="28.7891" cy="28" r="28" fill="#F4F7FE"/>
<path d="M21.0731 24.3134H21.3468C22.4005 24.3134 23.2626 25.1755 23.2626 26.2291V35.808C23.2626 36.8616 22.4005 37.7237 21.3468 37.7237H21.0731C20.0194 37.7237 19.1573 36.8616 19.1573 35.808V26.2291C19.1573 25.1755 20.0194 24.3134 21.0731 24.3134ZM28.7362 18.5661C29.7898 18.5661 30.6519 19.4282 30.6519 20.4819V35.808C30.6519 36.8616 29.7898 37.7237 28.7362 37.7237C27.6825 37.7237 26.8204 36.8616 26.8204 35.808V20.4819C26.8204 19.4282 27.6825 18.5661 28.7362 18.5661ZM36.3992 29.5133C37.4529 29.5133 38.315 30.3754 38.315 31.4291V35.808C38.315 36.8616 37.4529 37.7237 36.3992 37.7237C35.3456 37.7237 34.4835 36.8616 34.4835 35.808V31.4291C34.4835 30.3754 35.3456 29.5133 36.3992 29.5133Z" fill="#4318FF"/>
</svg>
