<svg width="34" height="33" viewBox="0 0 34 33" fill="none" xmlns="http://www.w3.org/2000/svg">
<rect x="0.789062" width="33" height="33" rx="7" fill="#F4F7FE"/>
<g clip-path="url(#clip0_1_818)">
<path d="M12.1891 14.2H12.3891C13.1591 14.2 13.7891 14.83 13.7891 15.6V22.6C13.7891 23.37 13.1591 24 12.3891 24H12.1891C11.4191 24 10.7891 23.37 10.7891 22.6V15.6C10.7891 14.83 11.4191 14.2 12.1891 14.2ZM17.7891 10C18.5591 10 19.1891 10.63 19.1891 11.4V22.6C19.1891 23.37 18.5591 24 17.7891 24C17.0191 24 16.3891 23.37 16.3891 22.6V11.4C16.3891 10.63 17.0191 10 17.7891 10ZM23.3891 18C24.1591 18 24.7891 18.63 24.7891 19.4V22.6C24.7891 23.37 24.1591 24 23.3891 24C22.6191 24 21.9891 23.37 21.9891 22.6V19.4C21.9891 18.63 22.6191 18 23.3891 18Z" fill="#4318FF"/>
</g>
<defs>
<clipPath id="clip0_1_818">
<rect width="24" height="24" fill="white" transform="translate(5.78906 5)"/>
</clipPath>
</defs>
</svg>
