<svg width="57" height="56" viewBox="0 0 57 56" fill="none" xmlns="http://www.w3.org/2000/svg">
<circle cx="28.7891" cy="28" r="28" fill="url(#paint0_linear_1_787)"/>
<g clip-path="url(#clip0_1_787)">
<path fill-rule="evenodd" clip-rule="evenodd" d="M34.2373 29.3183C35.8356 30.4033 36.9556 31.8733 36.9556 33.8333V37.3333H40.4556C41.0973 37.3333 41.6223 36.8083 41.6223 36.1667V33.8333C41.6223 31.29 37.4573 29.785 34.2373 29.3183Z" fill="white"/>
<path d="M25.289 27.9998C27.8664 27.9998 29.9557 25.9104 29.9557 23.3331C29.9557 20.7558 27.8664 18.6664 25.289 18.6664C22.7117 18.6664 20.6224 20.7558 20.6224 23.3331C20.6224 25.9104 22.7117 27.9998 25.289 27.9998Z" fill="white"/>
<path fill-rule="evenodd" clip-rule="evenodd" d="M32.289 27.9998C34.8674 27.9998 36.9557 25.9114 36.9557 23.3331C36.9557 20.7548 34.8674 18.6664 32.289 18.6664C31.7407 18.6664 31.2274 18.7831 30.7374 18.9464C31.7057 20.1481 32.289 21.6764 32.289 23.3331C32.289 24.9898 31.7057 26.5181 30.7374 27.7198C31.2274 27.8831 31.7407 27.9998 32.289 27.9998Z" fill="white"/>
<path fill-rule="evenodd" clip-rule="evenodd" d="M25.289 29.1665C22.174 29.1665 15.9557 30.7298 15.9557 33.8331V36.1665C15.9557 36.8081 16.4807 37.3331 17.1224 37.3331H33.4557C34.0974 37.3331 34.6224 36.8081 34.6224 36.1665V33.8331C34.6224 30.7298 28.404 29.1665 25.289 29.1665Z" fill="white"/>
</g>
<defs>
<linearGradient id="paint0_linear_1_787" x1="0.789062" y1="0" x2="56.7891" y2="56" gradientUnits="userSpaceOnUse">
<stop stop-color="#868CFF"/>
<stop offset="1" stop-color="#4318FF"/>
</linearGradient>
<clipPath id="clip0_1_787">
<rect width="28" height="28" fill="white" transform="translate(14.7891 14)"/>
</clipPath>
</defs>
</svg>
