<svg width="49" height="48" viewBox="0 0 49 48" fill="none" xmlns="http://www.w3.org/2000/svg">
<circle cx="24.7891" cy="24" r="24" fill="#F6F8FD"/>
<g clip-path="url(#clip0_1_279)">
<path d="M16.7891 18H32.7891V20H16.7891V18ZM18.7891 14H30.7891V16H18.7891V14ZM32.7891 22H16.7891C15.6891 22 14.7891 22.9 14.7891 24V32C14.7891 33.1 15.6891 34 16.7891 34H32.7891C33.8891 34 34.7891 33.1 34.7891 32V24C34.7891 22.9 33.8891 22 32.7891 22ZM32.7891 32H16.7891V24H32.7891V32ZM22.7891 24.73V31.26L28.7891 28L22.7891 24.73Z" fill="#FFB547"/>
</g>
<defs>
<clipPath id="clip0_1_279">
<rect width="24" height="24" fill="white" transform="translate(12.7891 12)"/>
</clipPath>
</defs>
</svg>
